# xmcd
#
# Track frame offsets: 
#        183
#        14248
#        27955
#        41368
#        55168
#        69960
#        83563
#        96110
#        109835
#        125120
#        137553
#        150523
#        165345
#        179560
#        191800
#        205538
#
# Disc length: 2911 seconds
#
# Revision: 4
# Processed by: cddbd v1.5.2PL0 Copyright (c) Steve Scherf et al.
# Submitted via: ExactAudioCopyFreeDBPlugin 1.0
#
DISCID=d10b5d10
DTITLE=Roosevelt Sykes - "44" Blues
DYEAR=1900
DGENRE=Blues
TTITLE0="44" Blues
TTITLE1=Boot That Thing
TTITLE2=All My Money Gone Blues
TTITLE3=The Way I Feel Blues
TTITLE4=Henry Ford Blues
TTITLE5=Poor Boy Blues
TTITLE6=We Can Sell That Thing
TTITLE7=3, 6 and 9
TTITLE8=Jet Black Snake
TTITLE9=Drunken Gambler
TTITLE10=The Train Is Coming
TTITLE11=Under Eyed Woman
TTITLE12=Pistol Shootin' Blues
TTITLE13=Low As AToad
TTITLE14=Third Degree Blues
TTITLE15=Training Camp Blues
EXTD=
EXTT0=
EXTT1=
EXTT2=
EXTT3=
EXTT4=
EXTT5=
EXTT6=
EXTT7=
EXTT8=
EXTT9=
EXTT10=
EXTT11=
EXTT12=
EXTT13=
EXTT14=
EXTT15=
PLAYORDER=
